<?xml version="1.0" encoding="UTF-8" standalone="no"?>
<!-- Created with Inkscape (http://www.inkscape.org/) -->

<svg
   xmlns:dc="http://purl.org/dc/elements/1.1/"
   xmlns:cc="http://creativecommons.org/ns#"
   xmlns:rdf="http://www.w3.org/1999/02/22-rdf-syntax-ns#"
   xmlns:svg="http://www.w3.org/2000/svg"
   xmlns="http://www.w3.org/2000/svg"
   xmlns:sodipodi="http://sodipodi.sourceforge.net/DTD/sodipodi-0.dtd"
   xmlns:inkscape="http://www.inkscape.org/namespaces/inkscape"
   id="svg2"
   version="1.1"
   inkscape:version="0.91 r13725"
   width="32"
   height="32"
   viewBox="0 0 32 32"
   sodipodi:docname="close-hover.svg">
  <metadata
     id="metadata8">
    <rdf:RDF>
      <cc:Work
         rdf:about="">
        <dc:format>image/svg+xml</dc:format>
        <dc:type
           rdf:resource="http://purl.org/dc/dcmitype/StillImage" />
        <dc:title></dc:title>
      </cc:Work>
    </rdf:RDF>
  </metadata>
  <defs
     id="defs6">
    <filter
       inkscape:collect="always"
       style="color-interpolation-filters:sRGB"
       id="filter4156"
       x="-0.108"
       width="1.216"
       y="-0.108"
       height="1.216">
      <feGaussianBlur
         inkscape:collect="always"
         stdDeviation="1.26"
         id="feGaussianBlur4158" />
    </filter>
  </defs>
  <sodipodi:namedview
     pagecolor="#ffffff"
     bordercolor="#666666"
     borderopacity="1"
     objecttolerance="10"
     gridtolerance="10"
     guidetolerance="10"
     inkscape:pageopacity="0"
     inkscape:pageshadow="2"
     inkscape:window-width="1366"
     inkscape:window-height="703"
     id="namedview4"
     showgrid="true"
     inkscape:snap-bbox="true"
     inkscape:zoom="14.760582"
     inkscape:cx="1.6192161"
     inkscape:cy="16.282007"
     inkscape:window-x="0"
     inkscape:window-y="26"
     inkscape:window-maximized="1"
     inkscape:current-layer="svg2"
     inkscape:snap-bbox-edge-midpoints="true"
     inkscape:bbox-nodes="true">
    <inkscape:grid
       type="xygrid"
       id="grid3338" />
  </sodipodi:namedview>
  <circle
     style="opacity:0.3;fill:#000000;fill-opacity:1;stroke:none;stroke-width:0;stroke-linecap:butt;stroke-miterlimit:4;stroke-dasharray:none;stroke-opacity:1;filter:url(#filter4156)"
     id="path4150"
     cx="16"
     cy="16"
     r="14" />
  <rect
     style="opacity:1;fill:#222222;fill-opacity:1;fill-rule:evenodd;stroke:none;stroke-width:1px;stroke-linecap:butt;stroke-linejoin:miter;stroke-opacity:1"
     id="rect4140"
     width="28"
     height="28"
     x="2"
     y="2"
     ry="14" />
  <rect
     style="fill:#555555;fill-opacity:1;stroke:none"
     id="rect4142"
     width="26"
     height="26"
     x="3"
     y="3"
     ry="13" />
  <g
     id="g4159"
     transform="translate(7.9925526,8.0091375)"
     style="fill:#ffffff;fill-opacity:1">
    <g
       style="display:inline;fill:#ffffff;fill-opacity:1"
       id="layer9"
       transform="translate(-60,-518)" />
    <g
       id="layer10"
       transform="translate(-60,-518)"
       style="fill:#ffffff;fill-opacity:1" />
    <g
       id="layer11"
       transform="translate(-60,-518)"
       style="fill:#ffffff;fill-opacity:1" />
    <g
       id="layer12"
       transform="translate(-60,-518)"
       style="fill:#ffffff;fill-opacity:1">
      <g
         style="display:inline;fill:#ffffff;fill-opacity:1"
         id="layer4-4-1"
         transform="translate(19,-242)">
        <path
           style="color:#bebebe;font-style:normal;font-variant:normal;font-weight:normal;font-stretch:normal;font-size:medium;line-height:normal;font-family:'Andale Mono';-inkscape-font-specification:'Andale Mono';text-indent:0;text-align:start;text-decoration:none;text-decoration-line:none;letter-spacing:normal;word-spacing:normal;text-transform:none;direction:ltr;block-progression:tb;writing-mode:lr-tb;text-anchor:start;display:inline;overflow:visible;visibility:visible;fill:#ffffff;fill-opacity:1;fill-rule:nonzero;stroke:none;stroke-width:1.78124988;marker:none;enable-background:new"
           id="path10839-9"
           d="m 45,764 1,0 c 0.01037,-1.2e-4 0.02079,-4.6e-4 0.03125,0 0.254951,0.0112 0.50987,0.12858 0.6875,0.3125 L 49,766.59375 51.3125,764.3125 C 51.578125,764.082 51.759172,764.007 52,764 l 1,0 0,1 c 0,0.28647 -0.03434,0.55065 -0.25,0.75 l -2.28125,2.28125 2.25,2.25 C 52.906938,770.46942 52.999992,770.7347 53,771 l 0,1 -1,0 c -0.265301,-10e-6 -0.530586,-0.0931 -0.71875,-0.28125 L 49,769.4375 46.71875,771.71875 C 46.530586,771.90694 46.26529,772 46,772 l -1,0 0,-1 c -3e-6,-0.26529 0.09306,-0.53058 0.28125,-0.71875 l 2.28125,-2.25 L 45.28125,765.75 C 45.070508,765.55537 44.97809,765.28075 45,765 l 0,-1 z"
           inkscape:connector-curvature="0" />
      </g>
    </g>
    <g
       id="layer13"
       transform="translate(-60,-518)"
       style="fill:#ffffff;fill-opacity:1" />
    <g
       id="layer14"
       transform="translate(-60,-518)"
       style="fill:#ffffff;fill-opacity:1" />
    <g
       id="layer15"
       transform="translate(-60,-518)"
       style="fill:#ffffff;fill-opacity:1" />
  </g>
</svg>
