/* XPM */
static char * shade_pressed_xpm[] = {
"26 26 4 1",
" 	c None",
".	c #222222",
"+	c #2196F3",
"@	c #FFFFFF",
"..........................",
".++++++++++++++++++++++++.",
".++++++++++++++++++++++++.",
".++++++++++++++++++++++++.",
".++++++++++++++++++++++++.",
".++++++++++++++++++++++++.",
".++++++++++++++++++++++++.",
".++++++++++++++++++++++++.",
".+++++++@@@@@@@@@@+++++++.",
".+++++++@@@@@@@@@@+++++++.",
".++++++++++++++++++++++++.",
".++++++++++++++++++++++++.",
".+++++++++++@@+++++++++++.",
".++++++++++@@@@++++++++++.",
".+++++++++@@@@@@+++++++++.",
".++++++++@@@++@@@++++++++.",
".+++++++@@@++++@@@+++++++.",
".++++++++@++++++@++++++++.",
".++++++++++++++++++++++++.",
".++++++++++++++++++++++++.",
".++++++++++++++++++++++++.",
".++++++++++++++++++++++++.",
".++++++++++++++++++++++++.",
".++++++++++++++++++++++++.",
".++++++++++++++++++++++++.",
".........................."};
