/* XPM */
static char * close_pressed_xpm[] = {
"26 26 4 1",
" 	c None",
".	c #222222",
"+	c #F44336",
"@	c #FFFFFF",
"..........................",
".++++++++++++++++++++++++.",
".++++++++++++++++++++++++.",
".++++++++++++++++++++++++.",
".++++++++++++++++++++++++.",
".++++++++++++++++++++++++.",
".++++++++++++++++++++++++.",
".++++++++++++++++++++++++.",
".++++++++@++++++@++++++++.",
".+++++++@@@++++@@@+++++++.",
".++++++++@@@++@@@++++++++.",
".+++++++++@@@@@@+++++++++.",
".++++++++++@@@@++++++++++.",
".++++++++++@@@@++++++++++.",
".+++++++++@@@@@@+++++++++.",
".++++++++@@@++@@@++++++++.",
".+++++++@@@++++@@@+++++++.",
".++++++++@++++++@++++++++.",
".++++++++++++++++++++++++.",
".++++++++++++++++++++++++.",
".++++++++++++++++++++++++.",
".++++++++++++++++++++++++.",
".++++++++++++++++++++++++.",
".++++++++++++++++++++++++.",
".++++++++++++++++++++++++.",
".........................."};
