/* XPM */
static char * close_active_xpm[] = {
"26 26 3 1",
" 	c None",
".	c #2B2B2B",
"+	c #FFFFFF",
"..........................",
"..........................",
"..........................",
"..........................",
"..........................",
"..........................",
"..........................",
"..........................",
".........+......+.........",
"........+++....+++........",
".........+++..+++.........",
"..........++++++..........",
"...........++++...........",
"...........++++...........",
"..........++++++..........",
".........+++..+++.........",
"........+++....+++........",
".........+......+.........",
"..........................",
"..........................",
"..........................",
"..........................",
"..........................",
"..........................",
"..........................",
".........................."};
