/* XPM */
static char * hide_prelight_xpm[] = {
"26 26 4 1",
" 	c None",
".	c #222222",
"+	c #555555",
"@	c #FFFFFF",
"..........................",
".++++++++++++++++++++++++.",
".++++++++++++++++++++++++.",
".++++++++++++++++++++++++.",
".++++++++++++++++++++++++.",
".++++++++++++++++++++++++.",
".++++++++++++++++++++++++.",
".++++++++++++++++++++++++.",
".++++++++++++++++++++++++.",
".++++++++++++++++++++++++.",
".++++++++++++++++++++++++.",
".++++++++++++++++++++++++.",
".++++++++++++++++++++++++.",
".++++++++++++++++++++++++.",
".++++++++++++++++++++++++.",
".++++++++++++++++++++++++.",
".+++++++@@@@@@@@@@+++++++.",
".+++++++@@@@@@@@@@+++++++.",
".++++++++++++++++++++++++.",
".++++++++++++++++++++++++.",
".++++++++++++++++++++++++.",
".++++++++++++++++++++++++.",
".++++++++++++++++++++++++.",
".++++++++++++++++++++++++.",
".++++++++++++++++++++++++.",
".........................."};
